<svg width="19" height="20" viewBox="2 1 20 20" fill="none" xmlns="http://www.w3.org/2000/svg"><path d="M7.5 3.25v.25h4v-.25a2 2 0 1 0-4 0Zm-1.25.25v-.25a3.25 3.25 0 0 1 6.5 0v.25h5.625a.625.625 0 1 1 0 1.25h-1.459l-1 11.928A3.625 3.625 0 0 1 12.304 20H6.696a3.625 3.625 0 0 1-3.612-3.322l-1-11.928H.625a.625.625 0 0 1 0-1.25H6.25Zm2 4.625a.625.625 0 0 0-1.25 0v7.25a.625.625 0 0 0 1.25 0v-7.25Zm3.125-.625a.625.625 0 0 0-.625.625v7.25a.624.624 0 1 0 1.25 0v-7.25a.625.625 0 0 0-.625-.625Z" fill="#0FA958"/></svg>