<svg width="641" height="512" viewBox="0 0 641 512" fill="none" xmlns="http://www.w3.org/2000/svg">
<path d="M65.03 239.1C65.03 288.69 86.41 333.2 122 369.8C109.5 420.19 67.69 465.1 67.19 465.6C65.003 467.897 64.409 471.303 65.69 474.303C67.002 477.303 69.815 479.1 73.002 479.1C139.312 479.1 189.002 447.3 213.602 427.69C246.322 440 282.622 447.1 321.002 447.1C358.392 447.1 393.782 440.437 425.802 428.74L83.93 161.7C71.81 185.9 65.03 212.3 65.03 239.1ZM631.8 469.1L513.7 376.51C552.1 340 577 292.4 577 240C577 125.1 462.4 32.9 321.9 32.9C254.16 32.9 192.8 54.45 147 89.37L39.81 5.117C29.21 -3.154 14.16 -1.096 6.115 9.19C-2.072 19.63 -0.249002 34.72 10.188 42.89L601.288 505.99C611.788 514.193 626.858 512.323 634.988 501.917C644.1 492.4 642.2 477.3 631.8 469.1Z" fill="#0FA958"/>
</svg>
